<?xml version="1.0" standalone="no"?>
<!DOCTYPE svg PUBLIC "-//W3C//DTD SVG 20010904//EN"
 "http://www.w3.org/TR/2001/REC-SVG-20010904/DTD/svg10.dtd">
<svg version="1.0" xmlns="http://www.w3.org/2000/svg"
 width="500.000000pt" height="500.000000pt" viewBox="0 0 500.000000 500.000000"
 preserveAspectRatio="xMidYMid meet">
<metadata>
Created by potrace 1.16, written by Peter Selinger 2001-2019
</metadata>
<g transform="translate(0.000000,500.000000) scale(0.100000,-0.100000)"
fill="#000000" stroke="none">
<path d="M2350 3863 c-129 -131 -237 -308 -364 -595 -76 -171 -132 -321 -180
-481 -29 -96 -45 -130 -94 -199 -32 -45 -118 -171 -192 -278 -274 -401 -491
-671 -587 -727 -37 -22 -47 -24 -71 -14 -95 40 -171 333 -158 610 20 440 151
879 356 1191 79 121 249 291 337 338 65 34 146 52 157 34 12 -19 -31 -87 -84
-135 -52 -47 -64 -77 -31 -77 34 0 107 68 141 132 28 53 25 84 -10 120 -27 27
-36 30 -73 25 -23 -3 -80 -25 -127 -49 -142 -71 -297 -238 -419 -450 -187
-325 -302 -771 -303 -1173 -1 -414 113 -654 289 -606 105 29 303 263 643 761
147 215 156 227 146 190 -33 -131 -50 -287 -50 -485 -1 -295 24 -430 78 -409
17 6 22 34 36 179 26 278 98 541 212 769 23 46 43 75 48 70 6 -6 2 -60 -9
-133 -11 -68 -18 -129 -16 -135 2 -6 6 -23 9 -38 8 -36 44 -68 76 -68 34 0
157 82 250 166 133 121 122 115 95 48 -33 -81 -48 -158 -42 -218 9 -93 87
-132 177 -86 49 25 415 382 450 438 24 39 35 45 215 118 297 120 375 143 375
110 0 -18 -274 -284 -434 -421 -69 -59 -126 -111 -126 -115 0 -4 9 -15 19 -24
19 -17 22 -16 84 28 74 53 174 101 241 116 70 16 91 -1 79 -62 -4 -22 -33 -60
-88 -118 -118 -123 -203 -224 -303 -358 -139 -186 -255 -390 -268 -471 -6 -37
-4 -41 27 -60 44 -27 55 -26 109 13 123 89 360 444 487 730 84 190 92 202 161
268 66 62 158 136 215 173 l29 18 -17 -39 c-28 -63 -54 -150 -61 -203 -16
-125 67 -195 173 -145 44 22 304 263 399 372 45 52 74 93 74 107 0 54 -30 32
-195 -143 -208 -221 -342 -324 -385 -297 -5 3 -10 30 -10 59 0 90 49 225 125
349 49 77 52 89 32 106 -11 8 -18 6 -33 -10 -10 -12 -44 -37 -74 -57 -78 -50
-184 -130 -264 -201 -38 -34 -72 -61 -76 -61 -4 0 -13 14 -20 30 -17 42 -47
60 -97 60 -26 0 -43 5 -43 12 0 6 68 80 150 163 124 125 152 158 156 187 7 42
-21 78 -61 78 -29 0 -187 -49 -293 -91 -115 -46 -123 -41 -63 35 74 93 88 139
51 176 -26 26 -54 25 -116 -4 -96 -45 -264 -230 -264 -291 0 -12 11 -39 25
-59 l25 -36 -158 -167 c-190 -201 -311 -297 -356 -280 -25 10 -21 119 8 203
27 80 72 172 116 237 34 51 36 60 16 76 -15 12 -30 0 -170 -129 -187 -174
-311 -270 -348 -270 -16 0 -18 9 -18 76 0 42 10 135 21 206 23 140 19 178 -20
178 -75 0 -258 -420 -321 -735 -12 -60 -26 -114 -31 -119 -14 -15 -11 183 6
334 27 242 36 267 211 588 86 158 209 379 272 492 159 282 258 479 267 528 8
52 -11 96 -44 100 -18 3 -40 -13 -101 -75z m71 -75 c-23 -53 -93 -183 -358
-661 -79 -142 -143 -262 -143 -266 0 -4 -9 -16 -20 -26 -18 -16 -18 -12 6 75
60 219 194 507 333 716 139 208 239 298 182 162z m869 -837 c0 -15 -79 -112
-154 -188 -53 -55 -77 -73 -98 -73 -15 0 -29 4 -32 8 -9 14 51 106 101 154 67
66 183 128 183 99z m64 -948 c-144 -265 -290 -489 -375 -574 -94 -94 -104 -76
-33 65 64 128 194 319 318 469 128 153 159 167 90 40z"/>
</g>
</svg>
